<svg xmlns="http://www.w3.org/2000/svg" version="1.1" xmlns:xlink="http://www.w3.org/1999/xlink" xmlns:svgjs="http://svgjs.dev/svgjs" width="2000" height="555" viewBox="0 0 2000 555"><g transform="matrix(1,0,0,1,5.807358754475786,0.7528623350747807)"><svg viewBox="0 0 396 110" data-background-color="#ffffff" preserveAspectRatio="xMidYMid meet" height="555" width="2000" xmlns="http://www.w3.org/2000/svg" xmlns:xlink="http://www.w3.org/1999/xlink"><g id="tight-bounds" transform="matrix(1,0,0,1,0.2692407299999786,-0.01732146699794157)"><svg viewBox="0 0 395.52 110.0346429339959" height="110.0346429339959" width="395.52"><g><svg viewBox="0 0 566.2627038175784 157.53568573373363" height="110.0346429339959" width="395.52"><g><rect width="9.42604121093074" height="157.53568573373363" x="136.64116205447297" y="0" fill="#0c0a0f" opacity="1" stroke-width="0" stroke="transparent" fill-opacity="1" class="rect-yte-0" data-fill-palette-color="primary" rx="1%" id="yte-0" data-palette-color="#0c0a0f"></rect></g><g transform="matrix(1,0,0,1,170.74270381757844,0.3918798152580365)"><svg viewBox="0 0 395.52 156.75192610321756" height="156.75192610321756" width="395.52"><g id="textblocktransform"><svg viewBox="0 0 395.52 156.75192610321756" height="156.75192610321756" width="395.52" id="textblock"><g><svg viewBox="0 0 395.52 104.5235456046981" height="104.5235456046981" width="395.52"><g transform="matrix(1,0,0,1,0,0)"><svg width="395.52" viewBox="1.95 -34.35 133.03 35.160000000000004" height="104.5235456046981" data-palette-color="#0c0a0f"><path d="M26.49-9.25L29.39-9.25 29.39-1.15Q29.27-1.1 27.84-0.61 26.42-0.12 24.19 0.34 21.97 0.81 19.41 0.81L19.41 0.81Q15.21 0.81 11.96-0.65 8.72-2.1 6.48-4.59 4.25-7.08 3.1-10.24 1.95-13.4 1.95-16.85L1.95-16.85Q1.95-22.02 4.15-25.96 6.35-29.91 10.29-32.13 14.23-34.35 19.46-34.35L19.46-34.35Q21.9-34.35 24.13-33.84 26.37-33.33 29.39-32.4L29.39-32.4 29.39-24.56 26.39-24.56 25.66-29.1Q25.56-29.52 25.29-29.83 25.02-30.15 24.8-30.25L24.8-30.25 24.61-30.35Q23.97-30.64 22.71-31.09 21.44-31.54 19.7-31.54L19.7-31.54Q16.31-31.54 13.59-29.87 10.86-28.2 9.28-24.93 7.69-21.66 7.69-16.85L7.69-16.85Q7.69-9.86 11.06-5.91 14.43-1.95 20.36-1.95L20.36-1.95Q22.12-1.95 23.22-2.37 24.32-2.78 24.39-2.81L24.39-2.81Q25.17-3.1 25.34-3.81L25.34-3.81 26.49-9.25ZM55.95-1.95L55.95 0 48.56 0 47.9-2.95Q47.9-2.95 47.15-2.42 46.41-1.88 45.19-1.17 43.97-0.46 42.49 0.07 41.01 0.61 39.55 0.61L39.55 0.61Q36.84 0.61 34.95-1.2 33.05-3 33.05-6.15L33.05-6.15Q33.05-7.54 33.55-8.74 34.06-9.94 35.56-11.02 37.06-12.11 40.02-13.15 42.99-14.18 47.9-15.26L47.9-15.26 47.9-17.41Q47.9-22.34 43.23-22.34L43.23-22.34Q41.94-22.34 41-22.09 40.06-21.85 39.69-21.7L39.69-21.7 39.69-17.36 36.06-17.36Q35.37-17.36 34.79-17.61 34.2-17.87 34.2-18.8L34.2-18.8Q34.2-20.85 35.76-22.16 37.33-23.46 39.73-24.08 42.14-24.71 44.6-24.71L44.6-24.71Q47.7-24.71 49.41-23.74 51.12-22.78 51.8-21.08 52.49-19.38 52.49-17.21L52.49-17.21 52.49-3.2Q52.49-2.73 52.79-2.44 53.1-2.15 53.54-2.1L53.54-2.1 55.95-1.95ZM47.9-4.71L47.9-4.71 47.9-13.35Q44.53-12.52 42.54-11.68 40.55-10.84 39.57-10 38.6-9.16 38.29-8.29 37.99-7.42 37.99-6.49L37.99-6.49Q37.99-4.96 38.97-3.65 39.96-2.34 41.75-2.34L41.75-2.34Q42.75-2.34 43.82-2.7 44.89-3.05 45.82-3.53 46.75-4 47.32-4.36 47.9-4.71 47.9-4.71ZM84.13-1.95L84.13 0 73.09 0 73.09-1.95 75.19-2.1Q75.63-2.15 75.93-2.44 76.24-2.73 76.24-3.2L76.24-3.2 76.24-16.21Q76.24-18.58 75.14-19.81 74.04-21.04 71.43-21.04L71.43-21.04Q70.01-21.04 68.61-20.64 67.21-20.24 65.94-19.6L65.94-19.6 65.94-3.2Q65.94-2.17 66.99-2.1L66.99-2.1 69.09-1.95 69.09 0 57.78 0 57.78-1.95 60.22-2.1Q61.27-2.17 61.27-3.2L61.27-3.2 61.27-20.56 57.78-20.56 57.78-22.19 63.89-24.1 65.94-24.1 65.94-21.61Q68.04-22.8 70.25-23.75 72.46-24.71 74.19-24.71L74.19-24.71Q77.46-24.71 79.17-22.67 80.88-20.63 80.88-16.99L80.88-16.99 80.88-3.2Q80.88-2.73 81.18-2.44 81.49-2.15 81.93-2.1L81.93-2.1 84.13-1.95ZM112.52-1.95L112.52 0 104.58 0 104.58-2.86Q103.73-2.2 102.41-1.39 101.09-0.59 99.58 0.01 98.06 0.61 96.57 0.61L96.57 0.61Q93.35 0.61 91.51-1.33 89.67-3.27 89.67-7.5L89.67-7.5 89.67-21.04 86.17-21.04 86.17-22.75 92.33-24.71 94.33-24.71 94.33-8.45Q94.33-5.79 95.41-4.3 96.5-2.81 99.16-2.81L99.16-2.81Q100.7-2.81 102.19-3.33 103.68-3.86 104.58-4.3L104.58-4.3 104.58-21.04 101.07-21.04 101.07-22.75 107.17-24.71 109.22-24.71 109.22-3.2Q109.22-2.73 109.55-2.44 109.88-2.15 110.32-2.1L110.32-2.1 112.52-1.95ZM134.98-7.54L134.98 0 115.27 0 115.27-2.66 128.51-21.75 119.81-21.75Q119.45-21.75 119.17-21.4 118.89-21.04 118.81-20.7L118.81-20.7 118.32-16.99 115.76-16.99 115.76-24.1 134.27-24.1 134.27-22.05 120.57-2.39 130.65-2.39Q131-2.39 131.36-2.81 131.73-3.22 131.75-3.59L131.75-3.59 132.27-7.54 134.98-7.54Z" opacity="1" transform="matrix(1,0,0,1,0,0)" fill="#0c0a0f" class="wordmark-text-0" data-fill-palette-color="primary" id="text-0"></path></svg></g></svg></g><g transform="matrix(1,0,0,1,0,129.1990461568728)"><svg viewBox="0 0 375.74399999999997 27.55287994634473" height="27.55287994634473" width="375.74399999999997"><g transform="matrix(1,0,0,1,0,0)"><svg width="375.74399999999997" viewBox="2.35 -37.1 670.87 49.2" height="27.55287994634473" data-palette-color="#0c0a0f"><path d="M2.35 0.4L2.35 0.4 2.75-2.65Q4.8-3 5.5-3.83 6.2-4.65 6.2-6.8L6.2-6.8 6.25-26.45Q6.25-28 5.9-28.58 5.55-29.15 4.6-29.15L4.6-29.15Q4.1-29.15 3.48-29.1 2.85-29.05 2.85-29.05L2.85-29.05 2.65-29.35 3.05-32.1Q3.4-32.1 4.48-32.08 5.55-32.05 6.8-32.02 8.05-32 9.1-32L9.1-32Q9.7-32 10.88-32.05 12.05-32.1 13.3-32.15 14.55-32.2 15.43-32.23 16.3-32.25 16.3-32.25L16.3-32.25Q19.5-32.25 21.73-31.53 23.95-30.8 25.33-29.48 26.7-28.15 27.33-26.45 27.95-24.75 27.95-22.85L27.95-22.85Q27.95-20.6 26.98-18.6 26-16.6 24.35-15.03 22.7-13.45 20.58-12.53 18.45-11.6 16.15-11.6L16.15-11.6 11.9-11.6 11.85-7.55Q11.85-5.6 12-4.58 12.15-3.55 12.65-3.23 13.15-2.9 14.15-2.9L14.15-2.9Q14.8-2.9 15.65-2.98 16.5-3.05 16.5-3.05L16.5-3.05 16.65-2.8 16.15 0.15Q16.15 0.15 15.53 0.13 14.9 0.1 13.98 0.08 13.05 0.05 12.08 0.03 11.1 0 10.4 0L10.4 0Q9.45 0 8.1 0.05 6.75 0.1 5.45 0.18 4.15 0.25 3.28 0.33 2.4 0.4 2.35 0.4ZM12-15.6L16.7-14.95Q21.7-15.95 21.7-22.05L21.7-22.05Q21.7-25.45 19.8-27 17.9-28.55 13.7-28.55L13.7-28.55Q12.95-28.55 12.78-28.43 12.6-28.3 12.55-27.7L12.55-27.7Q12.35-24.85 12.23-21.7 12.1-18.55 12-15.6L12-15.6ZM36.95 0.6L36.95 0.6Q35 0.6 33.55 0.28 32.1-0.05 31.3-0.35 30.5-0.65 30.5-0.65L30.5-0.65 30.25-1.15Q30.35-1.8 30.47-3 30.6-4.2 30.72-5.53 30.85-6.85 30.9-7.75L30.9-7.75 33.35-8Q33.4-5.25 34.5-3.98 35.6-2.7 37.9-2.7L37.9-2.7Q39.45-2.7 40.52-3.38 41.6-4.05 41.6-5.1L41.6-5.1Q41.6-5.85 41.15-6.45 40.7-7.05 39.57-7.75 38.45-8.45 36.35-9.5L36.35-9.5Q33.4-10.9 32.07-12.45 30.75-14 30.75-16.05L30.75-16.05Q30.75-18.25 32.02-19.93 33.3-21.6 35.57-22.58 37.85-23.55 40.75-23.55L40.75-23.55Q43.1-23.55 44.62-23.1 46.15-22.65 46.15-22.65L46.15-22.65 46.35-22.2Q46.35-22.2 46.2-21.3 46.05-20.4 45.82-18.95 45.6-17.5 45.45-15.85L45.45-15.85 42.9-15.7Q42.9-15.7 42.92-16.07 42.95-16.45 42.95-16.75L42.95-16.75Q42.95-18.5 42.07-19.33 41.2-20.15 39.3-20.15L39.3-20.15Q37.85-20.15 36.9-19.48 35.95-18.8 35.95-17.8L35.95-17.8Q35.95-16.8 36.8-15.93 37.65-15.05 39.65-14.05L39.65-14.05Q42.45-12.7 44.02-11.58 45.6-10.45 46.25-9.33 46.9-8.2 46.9-6.8L46.9-6.8Q46.9-4.75 45.55-3.05 44.2-1.35 41.95-0.38 39.7 0.6 36.95 0.6ZM51.2 12.05L51.2 12.05Q50.9 12.05 50.34 11.63 49.8 11.2 49.25 10.58 48.7 9.95 48.3 9.35 47.9 8.75 47.9 8.4L47.9 8.4 48.2 7.85Q51.34 7.65 53.82 5.65 56.3 3.65 57.95 0.3L57.95 0.3Q57.45-1.15 56.8-3.08 56.15-5 55.42-7.08 54.7-9.15 53.97-11.2 53.25-13.25 52.57-15.03 51.9-16.8 51.4-18L51.4-18Q50.9-19.25 50.15-19.73 49.4-20.2 48.3-20.25L48.3-20.25 48.2-20.45 48.5-22.95Q48.7-22.95 49.45-22.95 50.2-22.95 51.05-22.95 51.9-22.95 52.5-22.95L52.5-22.95Q53.7-22.95 54.95-23 56.2-23.05 57.25-23.1 58.3-23.15 58.95-23.2 59.59-23.25 59.59-23.3L59.59-23.3 59.7-23.05 59.3-20.55Q57.8-20.5 57.3-20.23 56.8-19.95 56.8-19.3L56.8-19.3Q56.8-18.85 57.07-17.73 57.34-16.6 57.77-15.13 58.2-13.65 58.65-12.05 59.09-10.45 59.52-9.1 59.95-7.75 60.22-6.9 60.5-6.05 60.5-6.05L60.5-6.05 60.95-6.05Q61.75-8 62.59-10.18 63.45-12.35 64.17-14.28 64.9-16.2 65.34-17.55 65.8-18.9 65.8-19.25L65.8-19.25Q65.8-19.85 65.45-20.1 65.09-20.35 64.2-20.35L64.2-20.35 62.4-20.35 62.25-20.6 62.65-23.1Q62.65-23.1 63.47-23.05 64.3-23 65.52-22.98 66.75-22.95 67.9-22.95L67.9-22.95Q68.75-22.95 69.7-22.95 70.65-22.95 71.37-22.95 72.09-22.95 72.4-22.95L72.4-22.95 72-20.25Q70.95-20.05 70.42-19.53 69.9-19 69.4-17.7L69.4-17.7 63.05-2.35Q61.4 1.65 59.95 4.42 58.5 7.2 57.12 8.9 55.75 10.6 54.3 11.35 52.84 12.1 51.2 12.05ZM83.34 0.6L83.34 0.6Q79.99 0.6 77.57-0.8 75.14-2.2 73.82-4.75 72.49-7.3 72.49-10.8L72.49-10.8Q72.49-14.5 74.04-17.35 75.59-20.2 78.29-21.88 80.99-23.55 84.49-23.55L84.49-23.55Q86.29-23.55 87.67-23.3 89.04-23.05 89.87-22.8 90.69-22.55 90.69-22.55L90.69-22.55 90.84-22.1Q90.84-22.1 90.62-21.1 90.39-20.1 90.14-18.38 89.89-16.65 89.79-14.6L89.79-14.6 86.89-14.45 86.89-16.05Q86.89-17.85 85.99-18.82 85.09-19.8 83.49-19.8L83.49-19.8Q80.94-19.8 79.62-17.95 78.29-16.1 78.29-12.65L78.29-12.65Q78.29-8.45 79.82-6.18 81.34-3.9 84.19-3.9L84.19-3.9Q85.54-3.9 86.79-4.3 88.04-4.7 88.82-5.08 89.59-5.45 89.59-5.45L89.59-5.45 89.94-5.3 90.69-3Q90.69-3 89.97-2.48 89.24-1.95 88.09-1.23 86.94-0.5 85.67 0.05 84.39 0.6 83.34 0.6ZM93.34 0.15L93.74-2.65Q95.14-2.8 95.67-3.38 96.19-3.95 96.19-5.35L96.19-5.35 96.19-30.3Q96.19-31.8 95.74-32.4 95.29-33 94.14-33L94.14-33 93.04-33 92.84-33.25 93.09-35.55Q94.44-35.7 96.17-35.98 97.89-36.25 99.56-36.55 101.24-36.85 102.44-37.1L102.44-37.1 102.79-36.25Q102.54-35.85 102.27-33.68 101.99-31.5 101.79-27.83 101.59-24.15 101.44-19.35L101.44-19.35Q102.09-19.9 103.02-20.63 103.94-21.35 104.94-22 105.94-22.65 106.87-23.1 107.79-23.55 108.34-23.55L108.34-23.55Q111.89-23.55 113.79-21.88 115.69-20.2 115.69-17.05L115.69-17.05Q115.69-16.35 115.54-14.83 115.39-13.3 115.24-11.43 115.09-9.55 114.94-7.9 114.79-6.25 114.79-5.25L114.79-5.25Q114.79-3.95 115.17-3.35 115.54-2.75 116.39-2.75L116.39-2.75Q116.69-2.75 117.17-2.78 117.64-2.8 117.99-2.85L117.99-2.85 118.09-2.65 117.64 0.15Q116.59 0.1 115.06 0.05 113.54 0 112.54 0L112.54 0Q111.89 0 110.97 0.05 110.04 0.1 109.02 0.2 107.99 0.3 107.04 0.45L107.04 0.45 107.34-2.35Q108.64-2.65 109.22-3.35 109.79-4.05 109.79-5.3L109.79-5.3 110.04-14.25Q110.04-16.55 109.17-17.7 108.29-18.85 106.54-18.85L106.54-18.85Q105.54-18.85 104.09-18.23 102.64-17.6 101.39-16.6L101.39-16.6Q101.39-15.05 101.37-13.35 101.34-11.65 101.31-9.68 101.29-7.7 101.29-5.2L101.29-5.2Q101.29-3.85 101.67-3.33 102.04-2.8 102.89-2.8L102.89-2.8Q103.14-2.8 103.56-2.83 103.99-2.85 104.29-2.85L104.29-2.85 104.39-2.6 103.89 0.15Q102.89 0.1 101.34 0.05 99.79 0 98.74 0L98.74 0Q97.64 0 96.12 0.05 94.59 0.1 93.34 0.15L93.34 0.15ZM131.34 0.6L131.34 0.6Q128.29 0.6 125.96-0.8 123.64-2.2 122.34-4.78 121.04-7.35 121.04-10.75L121.04-10.75Q121.04-14.5 122.56-17.38 124.09-20.25 126.79-21.9 129.49-23.55 132.99-23.55L132.99-23.55Q136.14-23.55 138.44-22.15 140.74-20.75 141.99-18.2 143.24-15.65 143.24-12.2L143.24-12.2Q143.24-8.5 141.74-5.58 140.24-2.65 137.54-1.03 134.84 0.6 131.34 0.6ZM132.49-2.8L132.49-2.8Q134.79-2.8 136.06-4.67 137.34-6.55 137.34-10.05L137.34-10.05Q137.34-13.15 136.66-15.33 135.99-17.5 134.71-18.63 133.44-19.75 131.74-19.75L131.74-19.75Q129.39-19.75 128.11-17.88 126.84-16 126.84-12.5L126.84-12.5Q126.84-9.35 127.54-7.18 128.24-5 129.49-3.9 130.74-2.8 132.49-2.8ZM145.88 0.5L145.88 0.5 146.19-2.3Q147.44-2.6 147.99-3.13 148.53-3.65 148.66-4.53 148.78-5.4 148.78-6.7L148.78-6.7 148.78-30.3Q148.78-31.6 148.56-32.18 148.34-32.75 147.66-32.93 146.99-33.1 145.59-33L145.59-33 145.44-33.15 145.69-35.55Q148.03-35.85 150.36-36.23 152.69-36.6 155.03-37.1L155.03-37.1 155.38-36.25Q155.13-35.65 154.91-33.77 154.69-31.9 154.51-28.98 154.34-26.05 154.19-22.33 154.03-18.6 153.96-14.23 153.88-9.85 153.88-5.15L153.88-5.15Q153.88-3.85 154.24-3.3 154.59-2.75 155.44-2.75L155.44-2.75 157.13-2.85 157.24-2.6 156.78 0.15Q155.59 0.1 154.06 0.05 152.53 0 151.44 0L151.44 0Q150.44 0 148.94 0.15 147.44 0.3 145.88 0.5ZM169.78 0.6L169.78 0.6Q166.73 0.6 164.41-0.8 162.08-2.2 160.78-4.78 159.48-7.35 159.48-10.75L159.48-10.75Q159.48-14.5 161.01-17.38 162.53-20.25 165.23-21.9 167.93-23.55 171.43-23.55L171.43-23.55Q174.58-23.55 176.88-22.15 179.18-20.75 180.43-18.2 181.68-15.65 181.68-12.2L181.68-12.2Q181.68-8.5 180.18-5.58 178.68-2.65 175.98-1.03 173.28 0.6 169.78 0.6ZM170.93-2.8L170.93-2.8Q173.23-2.8 174.51-4.67 175.78-6.55 175.78-10.05L175.78-10.05Q175.78-13.15 175.11-15.33 174.43-17.5 173.16-18.63 171.88-19.75 170.18-19.75L170.18-19.75Q167.83-19.75 166.56-17.88 165.28-16 165.28-12.5L165.28-12.5Q165.28-9.35 165.98-7.18 166.68-5 167.93-3.9 169.18-2.8 170.93-2.8ZM194.33 12.1L194.33 12.1Q191.78 12.1 189.86 11.25 187.93 10.4 186.88 8.83 185.83 7.25 185.83 5.15L185.83 5.15Q186.48 4.45 187.86 3.38 189.23 2.3 190.83 1.25L190.83 1.25 190.83 0.95Q188.38 0.5 187.06-0.8 185.73-2.1 185.58-4.1L185.58-4.1Q186.48-5 187.51-5.85 188.53-6.7 189.73-7.4L189.73-7.4 189.73-8.3 192.93-7.4Q191.68-6.65 191.13-6.08 190.58-5.5 190.58-4.95L190.58-4.95Q190.58-4 191.78-3.58 192.98-3.15 194.88-2.95 196.78-2.75 198.93-2.5 201.08-2.25 202.98-1.7 204.88-1.15 206.11-0.08 207.33 1 207.33 2.9L207.33 2.9Q207.33 4.65 206.26 6.3 205.18 7.95 203.33 9.25 201.48 10.55 199.16 11.33 196.83 12.1 194.33 12.1ZM196.18 8.75L196.18 8.75Q197.88 8.75 199.31 8.22 200.73 7.7 201.58 6.75 202.43 5.8 202.43 4.7L202.43 4.7Q202.43 3.85 201.78 3.33 201.13 2.8 199.26 2.4 197.38 2 193.68 1.55L193.68 1.55Q192.58 2.4 192.01 3.43 191.43 4.45 191.43 5.45L191.43 5.45Q191.43 7 192.68 7.88 193.93 8.75 196.18 8.75ZM196.08-9.4L196.08-9.4Q198.03-9.4 199.11-10.7 200.18-12 200.18-14.4L200.18-14.4Q200.18-17.1 198.91-18.63 197.63-20.15 195.53-20.15L195.53-20.15Q193.58-20.15 192.51-18.85 191.43-17.55 191.43-15.1L191.43-15.1Q191.43-12.5 192.71-10.95 193.98-9.4 196.08-9.4ZM195.13-6.4L195.13-6.4Q192.38-6.4 190.33-7.4 188.28-8.4 187.13-10.2 185.98-12 185.98-14.35L185.98-14.35Q185.98-17 187.31-19.07 188.63-21.15 190.91-22.35 193.18-23.55 196.03-23.55L196.03-23.55Q197.58-23.55 198.81-23.3 200.03-23.05 201.08-23.05L201.08-23.05Q202.13-23.15 204.01-23.6 205.88-24.05 208.08-24.7L208.08-24.7 208.33-24.45 207.73-20.9Q206.73-20.8 205.68-20.7 204.63-20.6 203.83-20.55L203.83-20.55 203.63-20.3Q205.63-18.15 205.63-15.25L205.63-15.25Q205.63-12.75 204.26-10.75 202.88-8.75 200.51-7.58 198.13-6.4 195.13-6.4ZM210.38 0.55L210.38 0.55 210.68-2.25Q212.18-2.55 212.85-3.33 213.53-4.1 213.53-5.4L213.53-5.4 213.53-16.75Q213.53-18.25 213.05-18.9 212.58-19.55 211.48-19.55L211.48-19.55Q211.18-19.55 210.73-19.45 210.28-19.35 210.28-19.35L210.28-19.35 210.53-21.95Q212.13-22.15 213.7-22.43 215.28-22.7 216.55-22.95 217.83-23.2 218.63-23.38 219.43-23.55 219.43-23.55L219.43-23.55 219.78-22.75Q219.58-22.25 219.35-20.65 219.13-19.05 218.98-16.65 218.83-14.25 218.73-11.33 218.63-8.4 218.63-5.15L218.63-5.15Q218.63-3.9 218.98-3.35 219.33-2.8 220.23-2.8L220.23-2.8Q220.63-2.8 221.2-2.85 221.78-2.9 221.78-2.9L221.78-2.9 221.88-2.65 221.43 0.15Q221.43 0.15 220.9 0.13 220.38 0.1 219.58 0.08 218.78 0.05 217.88 0.03 216.98 0 216.23 0L216.23 0Q215.03 0 213.65 0.15 212.28 0.3 211.33 0.43 210.38 0.55 210.38 0.55ZM215.68-28.25L215.68-28.25Q214.08-28.25 213.3-29.2 212.53-30.15 212.53-31.5L212.53-31.5Q212.53-33.1 213.53-34.15 214.53-35.2 216.18-35.2L216.18-35.2Q217.68-35.2 218.5-34.27 219.33-33.35 219.33-31.95L219.33-31.95Q219.33-30.35 218.33-29.3 217.33-28.25 215.68-28.25ZM235.58 0.6L235.58 0.6Q232.23 0.6 229.8-0.8 227.38-2.2 226.05-4.75 224.73-7.3 224.73-10.8L224.73-10.8Q224.73-14.5 226.28-17.35 227.83-20.2 230.53-21.88 233.23-23.55 236.73-23.55L236.73-23.55Q238.53-23.55 239.9-23.3 241.28-23.05 242.1-22.8 242.93-22.55 242.93-22.55L242.93-22.55 243.08-22.1Q243.08-22.1 242.85-21.1 242.63-20.1 242.38-18.38 242.13-16.65 242.03-14.6L242.03-14.6 239.13-14.45 239.13-16.05Q239.13-17.85 238.23-18.82 237.33-19.8 235.73-19.8L235.73-19.8Q233.18-19.8 231.85-17.95 230.53-16.1 230.53-12.65L230.53-12.65Q230.53-8.45 232.05-6.18 233.58-3.9 236.43-3.9L236.43-3.9Q237.78-3.9 239.03-4.3 240.28-4.7 241.05-5.08 241.83-5.45 241.83-5.45L241.83-5.45 242.18-5.3 242.93-3Q242.93-3 242.2-2.48 241.48-1.95 240.33-1.23 239.18-0.5 237.9 0.05 236.63 0.6 235.58 0.6ZM263.17 0.6L263.17 0.6Q261.02 0.6 259.8-0.4 258.57-1.4 258.32-3.3L258.32-3.3 258.02-3.45Q256.97-2.35 255.92-1.5 254.87-0.65 253.97-0.13 253.07 0.4 252.47 0.4L252.47 0.4Q250.57 0.4 249.05-0.5 247.52-1.4 246.65-2.98 245.77-4.55 245.77-6.55L245.77-6.55Q245.77-8.05 246.55-9.2 247.32-10.35 248.62-10.65L248.62-10.65 258.22-13 258.22-14.5Q258.22-16.75 257.1-18 255.97-19.25 253.92-19.25L253.92-19.25Q252.52-19.25 250.95-18.57 249.37-17.9 248.02-16.85L248.02-16.85 247.67-17.05 246.82-19.8Q248.27-20.6 250.02-21.48 251.77-22.35 253.35-22.95 254.92-23.55 255.72-23.55L255.72-23.55Q258.47-23.55 260.22-22.68 261.97-21.8 262.82-20.3 263.67-18.8 263.67-16.8L263.67-16.8Q263.67-16.2 263.52-14.8 263.37-13.4 263.17-11.75 262.97-10.1 262.85-8.6 262.72-7.1 262.72-6.2L262.72-6.2Q262.72-5.2 263.22-4.65 263.72-4.1 264.57-4.1L264.57-4.1Q265.27-4.1 266-4.42 266.72-4.75 267.12-5.05L267.12-5.05 267.87-4.05Q267.37-3.25 266.62-2.25 265.87-1.25 265-0.45 264.12 0.35 263.17 0.6ZM254.07-4L254.07-4Q254.87-4 255.97-4.48 257.07-4.95 257.92-5.7L257.92-5.7 258.12-10.55 252.37-8.9Q251.07-8.55 251.07-7.1L251.07-7.1Q251.07-5.8 251.9-4.9 252.72-4 254.07-4ZM269.07 0.5L269.07 0.5 269.37-2.3Q270.62-2.6 271.17-3.13 271.72-3.65 271.85-4.53 271.97-5.4 271.97-6.7L271.97-6.7 271.97-30.3Q271.97-31.6 271.75-32.18 271.52-32.75 270.85-32.93 270.17-33.1 268.77-33L268.77-33 268.62-33.15 268.87-35.55Q271.22-35.85 273.55-36.23 275.87-36.6 278.22-37.1L278.22-37.1 278.57-36.25Q278.32-35.65 278.1-33.77 277.87-31.9 277.69-28.98 277.52-26.05 277.37-22.33 277.22-18.6 277.14-14.23 277.07-9.85 277.07-5.15L277.07-5.15Q277.07-3.85 277.42-3.3 277.77-2.75 278.62-2.75L278.62-2.75 280.32-2.85 280.42-2.6 279.97 0.15Q278.77 0.1 277.25 0.05 275.72 0 274.62 0L274.62 0Q273.62 0 272.12 0.15 270.62 0.3 269.07 0.5ZM306.46 0.6L306.46 0.6Q301.91 0.6 298.56-1.3 295.21-3.2 293.41-6.73 291.62-10.25 291.62-15.1L291.62-15.1Q291.62-19 292.87-22.25 294.12-25.5 296.44-27.8 298.76-30.1 301.94-31.35 305.12-32.6 309.06-32.6L309.06-32.6Q310.66-32.6 312.29-32.43 313.91-32.25 315.29-32 316.66-31.75 317.51-31.58 318.37-31.4 318.37-31.4L318.37-31.4 318.66-30.85Q318.66-30.85 318.39-29.63 318.12-28.4 317.81-26.35 317.51-24.3 317.37-21.75L317.37-21.75 313.21-21.45Q313.21-21.45 313.26-22.28 313.31-23.1 313.31-24.05L313.31-24.05Q313.31-26.3 311.84-27.33 310.37-28.35 307.26-28.35L307.26-28.35Q304.46-28.35 302.46-27.03 300.46-25.7 299.41-23.13 298.37-20.55 298.37-16.8L298.37-16.8Q298.37-12.6 299.49-9.6 300.62-6.6 302.71-5 304.81-3.4 307.66-3.4L307.66-3.4Q310.56-3.4 312.24-5.13 313.91-6.85 314.66-10.6L314.66-10.6 318.76-10.9Q318.76-10.9 318.64-10.08 318.51-9.25 318.34-7.93 318.16-6.6 317.96-5.03 317.76-3.45 317.66-1.95L317.66-1.95 317.26-1.4Q317.26-1.4 315.84-0.9 314.41-0.4 311.99 0.1 309.56 0.6 306.46 0.6ZM332.01 0.6L332.01 0.6Q328.96 0.6 326.64-0.8 324.31-2.2 323.01-4.78 321.71-7.35 321.71-10.75L321.71-10.75Q321.71-14.5 323.24-17.38 324.76-20.25 327.46-21.9 330.16-23.55 333.66-23.55L333.66-23.55Q336.81-23.55 339.11-22.15 341.41-20.75 342.66-18.2 343.91-15.65 343.91-12.2L343.91-12.2Q343.91-8.5 342.41-5.58 340.91-2.65 338.21-1.03 335.51 0.6 332.01 0.6ZM333.16-2.8L333.16-2.8Q335.46-2.8 336.74-4.67 338.01-6.55 338.01-10.05L338.01-10.05Q338.01-13.15 337.34-15.33 336.66-17.5 335.39-18.63 334.11-19.75 332.41-19.75L332.41-19.75Q330.06-19.75 328.79-17.88 327.51-16 327.51-12.5L327.51-12.5Q327.51-9.35 328.21-7.18 328.91-5 330.16-3.9 331.41-2.8 333.16-2.8ZM349.26-5.55L349.56-17Q349.56-18.25 349.16-18.88 348.76-19.5 347.81-19.5L347.81-19.5Q347.41-19.5 346.98-19.43 346.56-19.35 346.56-19.35L346.56-19.35 346.81-21.95Q348.26-22.15 349.76-22.43 351.26-22.7 352.53-22.95 353.81-23.2 354.58-23.38 355.36-23.55 355.36-23.55L355.36-23.55 355.76-22.75Q355.51-22.15 355.28-20.68 355.06-19.2 354.86-17.18 354.66-15.15 354.56-12.9 354.46-10.65 354.46-8.4L354.46-8.4Q354.46-4.1 357.86-4.1L357.86-4.1Q359.16-4.1 360.38-4.83 361.61-5.55 362.66-6.3L362.66-6.3 362.66-16.9Q362.66-18.4 362.18-18.93 361.71-19.45 360.36-19.45L360.36-19.45Q360.21-19.45 359.83-19.43 359.46-19.4 359.41-19.4L359.41-19.4 359.76-21.95Q361.31-22.2 362.86-22.45 364.41-22.7 365.71-22.93 367.01-23.15 367.81-23.3 368.61-23.45 368.61-23.45L368.61-23.45 369.06-22.7Q368.71-21.95 368.41-19.5 368.11-17.05 367.93-13.55 367.76-10.05 367.76-6.2L367.76-6.2Q367.76-5.2 368.26-4.65 368.76-4.1 369.61-4.1L369.61-4.1Q370.26-4.1 370.86-4.35 371.46-4.6 371.81-4.83 372.16-5.05 372.16-5.05L372.16-5.05 372.91-4.1Q372.91-4.1 372.46-3.45 372.01-2.8 371.28-1.9 370.56-1 369.68-0.28 368.81 0.45 367.96 0.6L367.96 0.6Q363.56 0.6 363.06-3.3L363.06-3.3 362.71-3.5Q360.66-1.65 359.01-0.55 357.36 0.55 356.71 0.55L356.71 0.55Q353.11 0.55 351.18-1.03 349.26-2.6 349.26-5.55L349.26-5.55ZM388.66 0.45L388.91-2.35Q390.21-2.65 390.78-3.35 391.36-4.05 391.41-5.3L391.41-5.3 391.56-14.25Q391.56-16.55 390.68-17.7 389.81-18.85 388.06-18.85L388.06-18.85Q387.16-18.85 386.18-18.48 385.21-18.1 384.43-17.6 383.66-17.1 383.21-16.75L383.21-16.75Q383.11-15.45 383.03-13.73 382.96-12 382.88-10.28 382.81-8.55 382.76-7.2 382.71-5.85 382.71-5.25L382.71-5.25Q382.71-3.9 383.06-3.35 383.41-2.8 384.31-2.8L384.31-2.8Q384.66-2.8 385.18-2.85 385.71-2.9 385.71-2.9L385.71-2.9 385.86-2.7 385.36 0.15Q385.36 0.15 384.48 0.1 383.61 0.05 382.43 0.03 381.26 0 380.31 0L380.31 0Q379.06 0 377.76 0.08 376.46 0.15 375.53 0.23 374.61 0.3 374.61 0.3L374.61 0.3 375.01-2.5Q376.46-2.7 377.03-3.33 377.61-3.95 377.61-5.35L377.61-5.35 377.61-16.4Q377.61-18.1 377.08-18.75 376.56-19.4 375.16-19.4L375.16-19.4 374.56-19.4 374.36-19.65 374.61-22Q376.71-22.3 378.68-22.68 380.66-23.05 381.91-23.3 383.16-23.55 383.16-23.55L383.16-23.55 383.56-23.1Q383.56-23.1 383.33-22.05 383.11-21 383.01-19.7L383.01-19.7 383.21-19.5Q383.76-19.95 384.66-20.65 385.56-21.35 386.56-22 387.56-22.65 388.46-23.1 389.36-23.55 389.91-23.55L389.91-23.55Q393.36-23.55 395.28-21.83 397.21-20.1 397.21-17.05L397.21-17.05Q397.21-16.35 397.08-14.83 396.96-13.3 396.81-11.43 396.66-9.55 396.53-7.9 396.41-6.25 396.41-5.25L396.41-5.25Q396.41-3.95 396.76-3.35 397.11-2.75 398.01-2.75L398.01-2.75Q398.46-2.75 399.03-2.8 399.61-2.85 399.61-2.85L399.61-2.85 399.71-2.65 399.26 0.15Q399.26 0.15 398.73 0.13 398.21 0.1 397.41 0.08 396.61 0.05 395.73 0.03 394.86 0 394.11 0L394.11 0Q393.36 0 392.43 0.08 391.51 0.15 390.63 0.23 389.76 0.3 389.21 0.38 388.66 0.45 388.66 0.45L388.66 0.45ZM409.25 0.6L409.25 0.6Q407.3 0.6 405.85 0.28 404.4-0.05 403.6-0.35 402.8-0.65 402.8-0.65L402.8-0.65 402.55-1.15Q402.65-1.8 402.78-3 402.9-4.2 403.03-5.53 403.15-6.85 403.2-7.75L403.2-7.75 405.65-8Q405.7-5.25 406.8-3.98 407.9-2.7 410.2-2.7L410.2-2.7Q411.75-2.7 412.83-3.38 413.9-4.05 413.9-5.1L413.9-5.1Q413.9-5.85 413.45-6.45 413-7.05 411.88-7.75 410.75-8.45 408.65-9.5L408.65-9.5Q405.7-10.9 404.38-12.45 403.05-14 403.05-16.05L403.05-16.05Q403.05-18.25 404.33-19.93 405.6-21.6 407.88-22.58 410.15-23.55 413.05-23.55L413.05-23.55Q415.4-23.55 416.93-23.1 418.45-22.65 418.45-22.65L418.45-22.65 418.65-22.2Q418.65-22.2 418.5-21.3 418.35-20.4 418.13-18.95 417.9-17.5 417.75-15.85L417.75-15.85 415.2-15.7Q415.2-15.7 415.23-16.07 415.25-16.45 415.25-16.75L415.25-16.75Q415.25-18.5 414.38-19.33 413.5-20.15 411.6-20.15L411.6-20.15Q410.15-20.15 409.2-19.48 408.25-18.8 408.25-17.8L408.25-17.8Q408.25-16.8 409.1-15.93 409.95-15.05 411.95-14.05L411.95-14.05Q414.75-12.7 416.33-11.58 417.9-10.45 418.55-9.33 419.2-8.2 419.2-6.8L419.2-6.8Q419.2-4.75 417.85-3.05 416.5-1.35 414.25-0.38 412 0.6 409.25 0.6ZM433.6 0.6L433.6 0.6Q430.2 0.6 427.73-0.8 425.25-2.2 423.9-4.75 422.55-7.3 422.55-10.8L422.55-10.8Q422.55-13.45 423.43-15.78 424.3-18.1 425.9-19.83 427.5-21.55 429.6-22.55 431.7-23.55 434.15-23.55L434.15-23.55Q442.25-23.55 442.25-15.4L442.25-15.4Q442.25-14.65 442.15-13.88 442.05-13.1 441.95-12.65L441.95-12.65 441.3-12.1 428.15-12.1Q428.2-8.35 429.78-6.23 431.35-4.1 434.18-3.85 437-3.6 440.8-5.35L440.8-5.35 441.15-5.2 441.9-3Q440.85-2.25 439.4-1.4 437.95-0.55 436.43 0.03 434.9 0.6 433.6 0.6ZM428.2-14.55L428.2-14.55 435.65-14.95Q436.3-15.05 436.5-15.28 436.7-15.5 436.7-16.15L436.7-16.15Q436.7-18.05 435.8-19.03 434.9-20 433.25-20L433.25-20Q431.2-20 429.85-18.6 428.5-17.2 428.2-14.55ZM444.8 0.5L444.8 0.5 445.1-2.3Q446.35-2.6 446.9-3.13 447.45-3.65 447.57-4.53 447.7-5.4 447.7-6.7L447.7-6.7 447.7-30.3Q447.7-31.6 447.47-32.18 447.25-32.75 446.57-32.93 445.9-33.1 444.5-33L444.5-33 444.35-33.15 444.6-35.55Q446.95-35.85 449.27-36.23 451.6-36.6 453.95-37.1L453.95-37.1 454.3-36.25Q454.05-35.65 453.82-33.77 453.6-31.9 453.42-28.98 453.25-26.05 453.1-22.33 452.95-18.6 452.87-14.23 452.8-9.85 452.8-5.15L452.8-5.15Q452.8-3.85 453.15-3.3 453.5-2.75 454.35-2.75L454.35-2.75 456.05-2.85 456.15-2.6 455.7 0.15Q454.5 0.1 452.97 0.05 451.45 0 450.35 0L450.35 0Q449.35 0 447.85 0.15 446.35 0.3 444.8 0.5ZM458.35 0.55L458.35 0.55 458.65-2.25Q460.15-2.55 460.82-3.33 461.5-4.1 461.5-5.4L461.5-5.4 461.5-16.75Q461.5-18.25 461.02-18.9 460.55-19.55 459.45-19.55L459.45-19.55Q459.15-19.55 458.7-19.45 458.25-19.35 458.25-19.35L458.25-19.35 458.5-21.95Q460.1-22.15 461.67-22.43 463.25-22.7 464.52-22.95 465.8-23.2 466.6-23.38 467.4-23.55 467.4-23.55L467.4-23.55 467.75-22.75Q467.55-22.25 467.32-20.65 467.1-19.05 466.95-16.65 466.8-14.25 466.7-11.33 466.6-8.4 466.6-5.15L466.6-5.15Q466.6-3.9 466.95-3.35 467.3-2.8 468.2-2.8L468.2-2.8Q468.6-2.8 469.17-2.85 469.75-2.9 469.75-2.9L469.75-2.9 469.85-2.65 469.4 0.15Q469.4 0.15 468.87 0.13 468.35 0.1 467.55 0.08 466.75 0.05 465.85 0.03 464.95 0 464.2 0L464.2 0Q463 0 461.62 0.15 460.25 0.3 459.3 0.43 458.35 0.55 458.35 0.55ZM463.65-28.25L463.65-28.25Q462.05-28.25 461.27-29.2 460.5-30.15 460.5-31.5L460.5-31.5Q460.5-33.1 461.5-34.15 462.5-35.2 464.15-35.2L464.15-35.2Q465.65-35.2 466.47-34.27 467.3-33.35 467.3-31.95L467.3-31.95Q467.3-30.35 466.3-29.3 465.3-28.25 463.65-28.25ZM487.04 0.45L487.29-2.35Q488.59-2.65 489.17-3.35 489.74-4.05 489.79-5.3L489.79-5.3 489.94-14.25Q489.94-16.55 489.07-17.7 488.19-18.85 486.44-18.85L486.44-18.85Q485.54-18.85 484.57-18.48 483.59-18.1 482.82-17.6 482.04-17.1 481.59-16.75L481.59-16.75Q481.49-15.45 481.42-13.73 481.34-12 481.27-10.28 481.19-8.55 481.14-7.2 481.09-5.85 481.09-5.25L481.09-5.25Q481.09-3.9 481.44-3.35 481.79-2.8 482.69-2.8L482.69-2.8Q483.04-2.8 483.57-2.85 484.09-2.9 484.09-2.9L484.09-2.9 484.24-2.7 483.74 0.15Q483.74 0.15 482.87 0.1 481.99 0.05 480.82 0.03 479.64 0 478.69 0L478.69 0Q477.44 0 476.14 0.08 474.84 0.15 473.92 0.23 472.99 0.3 472.99 0.3L472.99 0.3 473.39-2.5Q474.84-2.7 475.42-3.33 475.99-3.95 475.99-5.35L475.99-5.35 475.99-16.4Q475.99-18.1 475.47-18.75 474.94-19.4 473.54-19.4L473.54-19.4 472.94-19.4 472.74-19.65 472.99-22Q475.09-22.3 477.07-22.68 479.04-23.05 480.29-23.3 481.54-23.55 481.54-23.55L481.54-23.55 481.94-23.1Q481.94-23.1 481.72-22.05 481.49-21 481.39-19.7L481.39-19.7 481.59-19.5Q482.14-19.95 483.04-20.65 483.94-21.35 484.94-22 485.94-22.65 486.84-23.1 487.74-23.55 488.29-23.55L488.29-23.55Q491.74-23.55 493.67-21.83 495.59-20.1 495.59-17.05L495.59-17.05Q495.59-16.35 495.47-14.83 495.34-13.3 495.19-11.43 495.04-9.55 494.92-7.9 494.79-6.25 494.79-5.25L494.79-5.25Q494.79-3.95 495.14-3.35 495.49-2.75 496.39-2.75L496.39-2.75Q496.84-2.75 497.42-2.8 497.99-2.85 497.99-2.85L497.99-2.85 498.09-2.65 497.64 0.15Q497.64 0.15 497.12 0.13 496.59 0.1 495.79 0.08 494.99 0.05 494.12 0.03 493.24 0 492.49 0L492.49 0Q491.74 0 490.82 0.08 489.89 0.15 489.02 0.23 488.14 0.3 487.59 0.38 487.04 0.45 487.04 0.45L487.04 0.45ZM510.09 12.1L510.09 12.1Q507.54 12.1 505.62 11.25 503.69 10.4 502.64 8.83 501.59 7.25 501.59 5.15L501.59 5.15Q502.24 4.45 503.62 3.38 504.99 2.3 506.59 1.25L506.59 1.25 506.59 0.95Q504.14 0.5 502.82-0.8 501.49-2.1 501.34-4.1L501.34-4.1Q502.24-5 503.27-5.85 504.29-6.7 505.49-7.4L505.49-7.4 505.49-8.3 508.69-7.4Q507.44-6.65 506.89-6.08 506.34-5.5 506.34-4.95L506.34-4.95Q506.34-4 507.54-3.58 508.74-3.15 510.64-2.95 512.54-2.75 514.69-2.5 516.84-2.25 518.74-1.7 520.64-1.15 521.87-0.08 523.09 1 523.09 2.9L523.09 2.9Q523.09 4.65 522.02 6.3 520.94 7.95 519.09 9.25 517.24 10.55 514.92 11.33 512.59 12.1 510.09 12.1ZM511.94 8.75L511.94 8.75Q513.64 8.75 515.07 8.22 516.49 7.7 517.34 6.75 518.19 5.8 518.19 4.7L518.19 4.7Q518.19 3.85 517.54 3.33 516.89 2.8 515.02 2.4 513.14 2 509.44 1.55L509.44 1.55Q508.34 2.4 507.77 3.43 507.19 4.45 507.19 5.45L507.19 5.45Q507.19 7 508.44 7.88 509.69 8.75 511.94 8.75ZM511.84-9.4L511.84-9.4Q513.79-9.4 514.87-10.7 515.94-12 515.94-14.4L515.94-14.4Q515.94-17.1 514.67-18.63 513.39-20.15 511.29-20.15L511.29-20.15Q509.34-20.15 508.27-18.85 507.19-17.55 507.19-15.1L507.19-15.1Q507.19-12.5 508.47-10.95 509.74-9.4 511.84-9.4ZM510.89-6.4L510.89-6.4Q508.14-6.4 506.09-7.4 504.04-8.4 502.89-10.2 501.74-12 501.74-14.35L501.74-14.35Q501.74-17 503.07-19.07 504.39-21.15 506.67-22.35 508.94-23.55 511.79-23.55L511.79-23.55Q513.34-23.55 514.57-23.3 515.79-23.05 516.84-23.05L516.84-23.05Q517.89-23.15 519.77-23.6 521.64-24.05 523.84-24.7L523.84-24.7 524.09-24.45 523.49-20.9Q522.49-20.8 521.44-20.7 520.39-20.6 519.59-20.55L519.59-20.55 519.39-20.3Q521.39-18.15 521.39-15.25L521.39-15.25Q521.39-12.75 520.02-10.75 518.64-8.75 516.27-7.58 513.89-6.4 510.89-6.4ZM549.99 0.6L549.99 0.6Q545.44 0.6 542.09-1.3 538.74-3.2 536.94-6.73 535.14-10.25 535.14-15.1L535.14-15.1Q535.14-19 536.39-22.25 537.64-25.5 539.96-27.8 542.29-30.1 545.46-31.35 548.64-32.6 552.59-32.6L552.59-32.6Q554.19-32.6 555.81-32.43 557.44-32.25 558.81-32 560.19-31.75 561.04-31.58 561.89-31.4 561.89-31.4L561.89-31.4 562.19-30.85Q562.19-30.85 561.91-29.63 561.64-28.4 561.34-26.35 561.04-24.3 560.89-21.75L560.89-21.75 556.74-21.45Q556.74-21.45 556.79-22.28 556.84-23.1 556.84-24.05L556.84-24.05Q556.84-26.3 555.36-27.33 553.89-28.35 550.79-28.35L550.79-28.35Q547.99-28.35 545.99-27.03 543.99-25.7 542.94-23.13 541.89-20.55 541.89-16.8L541.89-16.8Q541.89-12.6 543.01-9.6 544.14-6.6 546.24-5 548.34-3.4 551.19-3.4L551.19-3.4Q554.09-3.4 555.76-5.13 557.44-6.85 558.19-10.6L558.19-10.6 562.29-10.9Q562.29-10.9 562.16-10.08 562.04-9.25 561.86-7.93 561.69-6.6 561.49-5.03 561.29-3.45 561.19-1.95L561.19-1.95 560.79-1.4Q560.79-1.4 559.36-0.9 557.94-0.4 555.51 0.1 553.09 0.6 549.99 0.6ZM576.08 0.6L576.08 0.6Q572.68 0.6 570.21-0.8 567.73-2.2 566.38-4.75 565.03-7.3 565.03-10.8L565.03-10.8Q565.03-13.45 565.91-15.78 566.78-18.1 568.38-19.83 569.98-21.55 572.08-22.55 574.18-23.55 576.63-23.55L576.63-23.55Q584.73-23.55 584.73-15.4L584.73-15.4Q584.73-14.65 584.63-13.88 584.53-13.1 584.43-12.65L584.43-12.65 583.78-12.1 570.63-12.1Q570.68-8.35 572.26-6.23 573.83-4.1 576.66-3.85 579.48-3.6 583.28-5.35L583.28-5.35 583.63-5.2 584.38-3Q583.33-2.25 581.88-1.4 580.43-0.55 578.91 0.03 577.38 0.6 576.08 0.6ZM570.68-14.55L570.68-14.55 578.13-14.95Q578.78-15.05 578.98-15.28 579.18-15.5 579.18-16.15L579.18-16.15Q579.18-18.05 578.28-19.03 577.38-20 575.73-20L575.73-20Q573.68-20 572.33-18.6 570.98-17.2 570.68-14.55ZM602.28 0.45L602.53-2.35Q603.83-2.65 604.41-3.35 604.98-4.05 605.03-5.3L605.03-5.3 605.18-14.25Q605.18-16.55 604.31-17.7 603.43-18.85 601.68-18.85L601.68-18.85Q600.78-18.85 599.81-18.48 598.83-18.1 598.06-17.6 597.28-17.1 596.83-16.75L596.83-16.75Q596.73-15.45 596.66-13.73 596.58-12 596.51-10.28 596.43-8.55 596.38-7.2 596.33-5.85 596.33-5.25L596.33-5.25Q596.33-3.9 596.68-3.35 597.03-2.8 597.93-2.8L597.93-2.8Q598.28-2.8 598.81-2.85 599.33-2.9 599.33-2.9L599.33-2.9 599.48-2.7 598.98 0.15Q598.98 0.15 598.11 0.1 597.23 0.05 596.06 0.03 594.88 0 593.93 0L593.93 0Q592.68 0 591.38 0.08 590.08 0.15 589.16 0.23 588.23 0.3 588.23 0.3L588.23 0.3 588.63-2.5Q590.08-2.7 590.66-3.33 591.23-3.95 591.23-5.35L591.23-5.35 591.23-16.4Q591.23-18.1 590.71-18.75 590.18-19.4 588.78-19.4L588.78-19.4 588.18-19.4 587.98-19.65 588.23-22Q590.33-22.3 592.31-22.68 594.28-23.05 595.53-23.3 596.78-23.55 596.78-23.55L596.78-23.55 597.18-23.1Q597.18-23.1 596.96-22.05 596.73-21 596.63-19.7L596.63-19.7 596.83-19.5Q597.38-19.95 598.28-20.65 599.18-21.35 600.18-22 601.18-22.65 602.08-23.1 602.98-23.55 603.53-23.55L603.53-23.55Q606.98-23.55 608.91-21.83 610.83-20.1 610.83-17.05L610.83-17.05Q610.83-16.35 610.71-14.83 610.58-13.3 610.43-11.43 610.28-9.55 610.16-7.9 610.03-6.25 610.03-5.25L610.03-5.25Q610.03-3.95 610.38-3.35 610.73-2.75 611.63-2.75L611.63-2.75Q612.08-2.75 612.66-2.8 613.23-2.85 613.23-2.85L613.23-2.85 613.33-2.65 612.88 0.15Q612.88 0.15 612.36 0.13 611.83 0.1 611.03 0.08 610.23 0.05 609.36 0.03 608.48 0 607.73 0L607.73 0Q606.98 0 606.06 0.08 605.13 0.15 604.26 0.23 603.38 0.3 602.83 0.38 602.28 0.45 602.28 0.45L602.28 0.45ZM624.68 0.6L624.68 0.6Q621.18 0.6 619.58-0.85 617.98-2.3 617.98-5.55L617.98-5.55 617.98-17Q617.98-18.5 617.43-19.05 616.88-19.6 615.23-19.65L615.23-19.65 614.88-20 615.13-22.15Q616.63-22.85 618.05-23.75 619.48-24.65 620.55-25.43 621.63-26.2 622.28-26.73 622.93-27.25 622.93-27.25L622.93-27.25 624.23-26.65Q624.23-26.65 624.05-25.58 623.88-24.5 623.73-22.5L623.73-22.5 630.03-22.65 630.23-22.4 629.73-19.25 623.43-19.4Q623.33-17.2 623.23-14.38 623.13-11.55 623.13-8.05L623.13-8.05Q623.13-5.8 623.9-4.83 624.68-3.85 626.53-3.85L626.53-3.85Q627.63-3.85 628.63-4.23 629.63-4.6 629.63-4.6L629.63-4.6 630.23-3.1Q630.23-3.1 629.58-2.55 628.93-2 627.98-1.25 627.03-0.5 626.13 0.05 625.23 0.6 624.68 0.6ZM643.43 0.6L643.43 0.6Q640.03 0.6 637.55-0.8 635.08-2.2 633.73-4.75 632.38-7.3 632.38-10.8L632.38-10.8Q632.38-13.45 633.25-15.78 634.13-18.1 635.73-19.83 637.33-21.55 639.43-22.55 641.53-23.55 643.98-23.55L643.98-23.55Q652.08-23.55 652.08-15.4L652.08-15.4Q652.08-14.65 651.98-13.88 651.88-13.1 651.78-12.65L651.78-12.65 651.13-12.1 637.98-12.1Q638.03-8.35 639.6-6.23 641.18-4.1 644-3.85 646.83-3.6 650.63-5.35L650.63-5.35 650.98-5.2 651.73-3Q650.68-2.25 649.23-1.4 647.78-0.55 646.25 0.03 644.73 0.6 643.43 0.6ZM638.03-14.55L638.03-14.55 645.48-14.95Q646.13-15.05 646.33-15.28 646.53-15.5 646.53-16.15L646.53-16.15Q646.53-18.05 645.63-19.03 644.73-20 643.08-20L643.08-20Q641.03-20 639.68-18.6 638.33-17.2 638.03-14.55ZM655.87 0.2L656.22-2.55Q657.72-2.7 658.22-3.43 658.72-4.15 658.72-6.2L658.72-6.2 658.72-16.4Q658.72-18.1 658.27-18.78 657.82-19.45 656.67-19.45L656.67-19.45Q656.37-19.45 656.05-19.38 655.72-19.3 655.72-19.3L655.72-19.3 655.47-19.65 655.67-21.95Q657.67-22.3 659.6-22.68 661.52-23.05 662.82-23.3 664.12-23.55 664.12-23.55L664.12-23.55 664.52-23.15Q664.52-23.15 664.4-22.43 664.27-21.7 664.17-20.6 664.07-19.5 664.02-18.35L664.02-18.35 664.32-18.2Q665.87-20.5 667.77-21.88 669.67-23.25 671.32-23.25L671.32-23.25Q672.12-23.25 672.57-23.15 673.02-23.05 673.02-23.05L673.02-23.05 673.22-22.7Q673.22-22.7 673.1-21.93 672.97-21.15 672.8-19.88 672.62-18.6 672.47-17.1 672.32-15.6 672.27-14.15L672.27-14.15 669.42-14Q669.42-16.3 669.15-17.05 668.87-17.8 668.02-17.8L668.02-17.8Q667.12-17.8 666.12-17.13 665.12-16.45 664.27-15.25L664.27-15.25Q664.27-15.25 664.22-14.35 664.17-13.45 664.12-12.08 664.07-10.7 664-9.3 663.92-7.9 663.87-6.83 663.82-5.75 663.82-5.45L663.82-5.45Q663.82-4 664.27-3.48 664.72-2.95 665.92-2.95L665.92-2.95Q666.57-2.95 667.45-3.03 668.32-3.1 668.32-3.1L668.32-3.1 668.47-2.85 667.92 0.15Q667.92 0.15 667.3 0.13 666.67 0.1 665.72 0.08 664.77 0.05 663.72 0.03 662.67 0 661.82 0L661.82 0Q660.37 0 658.97 0.05 657.57 0.1 656.72 0.15 655.87 0.2 655.87 0.2L655.87 0.2Z" opacity="1" transform="matrix(1,0,0,1,0,0)" fill="#0c0a0f" class="slogan-text-1" data-fill-palette-color="secondary" id="text-1"></path></svg></g></svg></g></svg></g></svg></g><g transform="matrix(1,0,0,1,0,0.3918798152580365)"><svg viewBox="0 0 111.96566150229826 156.75192610321756" height="156.75192610321756" width="111.96566150229826"><g><svg xmlns="http://www.w3.org/2000/svg" viewBox="10 2 40 56" x="0" y="0" height="156.75192610321756" width="111.96566150229826" class="icon-icon-0" data-fill-palette-color="accent" id="icon-0"><path d="M32 24.787L39.79 17.038A4.136 4.136 0 1 0 33.919 11.211L32.706 12.418A1 1 0 0 1 31.296 12.418L30.083 11.211A4.285 4.285 0 0 0 24.209 11.211 4.2 4.2 0 0 0 24.209 17.037Z" fill="#f98d67" data-fill-palette-color="accent"></path><path d="M34.57 35.419A7.7 7.7 0 0 1 31.738 34.868 5.7 5.7 0 0 1 30.177 36.215 1.5 1.5 0 0 0 31.5 37.015H31.93A2.98 2.98 0 0 1 34.425 38.354L37.252 42.6A0.955 0.955 0 0 0 39 42.07V38.816A6.43 6.43 0 0 1 34.57 35.419" fill="#f98d67" data-fill-palette-color="accent"></path><path d="M43.38 32.79A4.56 4.56 0 0 1 40.913 32.066 7.77 7.77 0 0 1 36.694 35.107 4.65 4.65 0 0 0 40.5 37 4.277 4.277 0 0 0 45 33 3.5 3.5 0 0 0 44.943 32.495 4.5 4.5 0 0 1 43.38 32.79" fill="#f98d67" data-fill-palette-color="accent"></path><path d="M49 2H14V50H49A1 1 0 0 0 50 49V3A1 1 0 0 0 49 2M47 33A6.224 6.224 0 0 1 41 38.977V42.07A2.954 2.954 0 0 1 35.588 43.705L32.758 39.465A0.99 0.99 0 0 0 31.93 39.02H31.5A3.5 3.5 0 0 1 28.3 36.907 5.5 5.5 0 0 1 27.34 37 5.68 5.68 0 0 1 22.068 33.319 5.7 5.7 0 0 1 16.52 27.619 4.71 4.71 0 0 1 17.562 21.965 4.66 4.66 0 0 1 21.94 17.634C21.967 17.593 22.006 17.564 22.034 17.524A6.12 6.12 0 0 1 27.126 8.004H27.182A6.1 6.1 0 0 1 31.493 9.791L32 10.3 32.508 9.795A6.17 6.17 0 0 1 41.2 9.795 6.1 6.1 0 0 1 43 14.122 6.02 6.02 0 0 1 41.722 17.857 6.72 6.72 0 0 1 45.41 23.89V23.9A4.7 4.7 0 0 1 46.731 31.316 5.6 5.6 0 0 1 47 33" fill="#f98d67" data-fill-palette-color="accent"></path><path d="M13 58H47A1 1 0 0 0 48 57V52H13A3 3 0 0 0 13 58M37 54H42A1 1 0 0 1 42 56H37A1 1 0 0 1 37 54M17 54H33A1 1 0 0 1 33 56H17A1 1 0 0 1 17 54" fill="#f98d67" data-fill-palette-color="accent"></path><path d="M44.092 25.521A1 1 0 0 1 43.38 24.421 4 4 0 0 0 43.41 23.888 4.72 4.72 0 0 0 40.257 19.388L33.045 26.562A1.484 1.484 0 0 1 30.956 26.562L23.424 19.069A0.98 0.98 0 0 1 22.43 19.639 2.667 2.667 0 0 0 19.55 22.313 0.5 0.5 0 0 1 19.56 22.443 1 1 0 0 1 19.135 23.262 2.69 2.69 0 0 0 18 25.47 2.64 2.64 0 0 0 18.385 26.86 1 1 0 0 1 18.519 27.531 3.7 3.7 0 0 0 22.657 31.279 1.006 1.006 0 0 1 23.778 32.063 3.623 3.623 0 0 0 30.517 33.111 1 1 0 0 1 31.87 32.723 5.657 5.657 0 0 0 39.744 30.1 1 1 0 0 1 41.414 29.878 2.57 2.57 0 0 0 43.38 30.794 2.654 2.654 0 0 0 46 28.11 2.69 2.69 0 0 0 44.092 25.521" fill="#f98d67" data-fill-palette-color="accent"></path><path d="M12 2.184A3 3 0 0 0 10 5V51A5 5 0 0 1 12 50.11Z" fill="#f98d67" data-fill-palette-color="accent"></path></svg></g></svg></g></svg></g><defs></defs></svg><rect width="395.52" height="110.0346429339959" fill="none" stroke="none" visibility="hidden"></rect></g></svg></g></svg>